<svg id="Capa_1" enable-background="new 0 0 512.001 512.001" height="512" viewBox="0 0 512.001 512.001" width="512" xmlns="http://www.w3.org/2000/svg"><g><g><path d="m130.501 271.452c-22.091 0-40-17.905-40-39.993 0-16.013 12.984-28.995 29-28.995h273c16.016 0 29 12.981 29 28.995 0 22.087-17.909 39.993-40 39.993z" fill="#f2bb88"/><path d="m377.239 81.394c-3.958-1.485-6.436-5.322-6.265-9.545.018-.446.027-.899.027-1.36 0-26.215-29.239-48.69-70.829-58.175-13.6-3.101-28.02-.167-43.671-.167-63.513 0-111.485 25.554-111.485 60.342 0 .461.009.914.027 1.36.171 4.224-3.702 8.983-7.66 10.468-23.227 8.714-33.713 27.353-33.713 53.62 0 7.709 1.704 15.322 4.99 22.295l10.84 42.233 136.5 1 136.5-1 19.51-41.401c3.286-6.973 4.99-14.587 4.99-22.295v-.001c.001-26.268-16.534-48.66-39.761-57.374z" fill="#9a6a53"/><path d="m310.671 15.055c-6.95-.66-14.11-1-21.42-1-67.56 0-122.32 29.13-122.32 65.06 0 .48.01.95.03 1.41.18 4.36-2.46 8.32-6.67 9.86-24.7 9-42.29 32.13-42.29 59.26 0 3.98.45 7.93 1.34 11.79s2.22 7.63 3.97 11.23l14.52 29.93-18.33-.13-19.51-41.4c-1.65-3.49-2.89-7.13-3.73-10.87s-1.26-7.58-1.26-11.43c0-26.26 16.53-48.66 39.76-57.37 3.96-1.49 6.44-5.32 6.27-9.55-.02-.44-.03-.9-.03-1.36 0-34.78 51.49-62.99 115-62.99 19.79 0 38.41 2.74 54.67 7.56z" fill="#855b47"/><path d="m375.811 197.896c0 50.731-.99 71.957-21.7 100.632-28.56 39.543-64.15 66.408-98.11 66.408s-69.55-26.865-98.11-66.408c-20.71-28.675-21.7-49.901-21.7-100.632 0-15.401 4.244-41.055 12.343-61.487 1.041-2.627 2.333-5.077 3.836-7.335 10.784-16.202 37.51-14.913 55.695-5.948 13.802 6.804 25.424 9.191 45.957 9.191s35.219-1.026 49.021-7.83c18.874-9.304 47.451-11.114 57.766 6.469 1.009 1.72 1.9 3.539 2.659 5.453 8.099 20.432 12.343 46.086 12.343 61.487z" fill="#f2d1a5"/><path d="m360.811 130.955c-4.65-2.27-10.11-3.54-15.9-3.54-4.58 0-9 .82-13.14 2.44-20.84 8.14-47.75 12.62-75.77 12.62s-54.93-4.48-75.77-12.62c-4.14-1.62-8.56-2.44-13.14-2.44-5.79 0-11.25 1.27-15.9 3.54 10.31-17.58 32.95-24.76 51.82-15.45 13.8 6.8 32.46 10.97 52.99 10.97s39.19-4.17 52.99-10.97c18.87-9.31 41.51-2.13 51.82 15.45z" fill="#f2bb88"/><path d="m482.761 504.5-6.37-36.603c-4.53-26.045-23.35-47.311-48.65-54.98l-80.74-24.486h-181l-61.61 24.544c-25.37 7.629-55.601 22-60.141 48.105l-3.675 22.896c-1.064 6.116-5.187 17.532 1.021 17.532l7.934 2.992h40.97l169.059-7.247 161.941 7.247z" fill="#e9a761"/><path d="m186.001 388.435-81.61 24.54c-25.37 7.63-44.26 28.93-48.8 55.03l-6.06 36.49h-21.552c-6.21 0 2.231-5.59 3.301-11.71l4.31-24.78c4.54-26.1 23.43-47.4 48.8-55.03l81.61-24.54z" fill="#e69642"/><g><g><path d="m330.491 314.115-78.596 11.734-69.384-11.734c21.32 0 24.934-31.33 49.384-31.33 4.199 0 7.906-2.106 10.487-.811 5.157 2.589 8.274 6.505 14.119 6.711 8.77-.31 11.4-8.97 23.99-8.97 24.45 0 28.68 34.4 50 34.4z" fill="#9a6a53"/></g></g><g><g><path d="m242.381 281.975c-16.06 7.66-21.88 32.14-39.87 32.14l-11.255 11.734-8.745-11.734c21.32 0 25.55-34.4 50-34.4 4.2 0 7.29.96 9.87 2.26z" fill="#855b47"/></g></g><path d="m95.473 497.962 321.527 3.547c5.118 0 12.316-1.549 12.851-6.638l5.01-10.375 16.738-159.34c.62-5.903-4.009-11.043-9.945-11.043h-362.303l-10.872 5.105c-5.936 0-4.353 4.302-3.733 10.205l20.783 159.585c.534 5.089 4.826 8.954 9.944 8.954z" fill="#909ba6"/><path d="m434.861 484.495-1.16 11.05c-.53 5.09-4.83 8.95-9.94 8.95h-335.52c-5.11 0-9.41-3.86-9.94-8.95l-17.9-170.39c-.62-5.9 4.01-11.04 9.95-11.04h9l17.241 164.111c.374 3.563 3.379 6.269 6.962 6.269z" fill="#7e8b96"/><path d="m214.533 409.305c0-17.947 5.315-33.51 20.238-41.21 6.361-3.282 13.579-5.135 21.23-5.135 25.601 0 46.356 20.75 46.356 46.347 0 7.642-1.85 14.853-5.127 21.208-7.698 14.93-22.771 18.058-40.729 18.058-25.602-.001-41.968-13.671-41.968-39.268z" fill="#7e8b96"/><path d="m297.231 430.515c-7.7 14.93-23.27 25.14-41.23 25.14-25.6 0-46.36-20.75-46.36-46.35 0-17.95 10.2-33.51 25.13-41.21-3.28 6.35-5.13 13.57-5.13 21.21 0 25.6 20.76 46.35 46.36 46.35 7.65 0 14.87-1.85 21.23-5.14z" fill="#64727a"/></g><g><path d="m490.149 503.214-6.37-36.603c-3.717-21.373-16.032-39.942-34.07-51.658l3.091-29.421c.433-4.12-2.556-7.81-6.676-8.243-4.119-.434-7.809 2.557-8.242 6.675l-11.64 110.799c-.134 1.275-1.203 2.236-2.486 2.236h-335.51c-1.283 0-2.353-.961-2.486-2.237l-17.9-170.39c-.102-.962.35-1.623.628-1.932s.89-.827 1.858-.827h371.309c.969 0 1.58.518 1.858.827s.729.97.628 1.932l-2.599 24.743c-.433 4.119 2.556 7.81 6.676 8.242 4.123.436 7.811-2.556 8.242-6.676l2.599-24.743c1.072-8.958-6.484-19.397-17.404-19.326h-84.186c5.688-7.299 13.014-19.095 16.415-27.661h7.617c26.191 0 47.5-21.305 47.5-47.493 0-16.283-10.723-30.106-25.478-34.79l15.272-32.409c3.733-7.921 5.706-16.737 5.706-25.494 0-28.502-17.935-54.381-44.627-64.395-.896-.336-1.447-1.208-1.407-2.212.777-20.064-12.728-39.252-37.546-52.79-22.806-12.489-52.965-19.368-84.92-19.368-26.418 0-51.521 4.656-72.595 13.464-3.821 1.598-5.625 5.991-4.027 9.813 1.597 3.821 5.988 5.624 9.813 4.027 19.256-8.049 42.358-12.304 66.809-12.304 58.271 0 107.5 25.411 107.5 55.489 0 .355-.007.705-.021 1.057-.303 7.48 4.168 14.26 11.125 16.871 20.873 7.831 34.896 28.065 34.896 50.352 0 6.56-1.479 13.164-4.274 19.098l-17.5 37.136-4.459.035c-.454-15.611-4.511-40.412-12.826-61.392-4.815-12.147-14.61-21.823-26.874-26.547-13.463-5.29-28.955-3.486-42.247 3.652-3.821 1.598-5.625 5.991-4.027 9.813 1.597 3.821 5.989 5.624 9.813 4.027 7.894-4.398 20.792-7.935 31.07-3.495 8.489 3.271 14.996 9.69 18.32 18.077 7.757 19.57 11.815 44.355 11.815 58.724 0 33.656-.441 53.279-6.396 70.5-4.144 12.599-13.678 26.34-23.509 38.217h-7.945c-6.315-.016-10.655-5.125-17.208-13.454-7.341-9.333-16.478-20.948-32.764-20.948-9.238 0-14.672 3.663-18.64 6.337-2.452 1.653-3.766 2.495-5.351 2.629-1.585-.135-2.898-.977-5.351-2.629-3.968-2.674-9.401-6.337-18.64-6.337-16.286 0-25.423 11.615-32.764 20.948-6.552 8.329-10.892 13.438-17.208 13.454h-8.946c-3.274-3.981-6.504-8.158-9.623-12.477-19.298-26.72-20.28-45.595-20.28-96.241 0-14.369 4.059-39.153 11.815-58.724 3.324-8.387 9.83-14.807 18.32-18.077 8.408-3.239 17.838-2.827 25.868 1.132 18.36 9.198 45.314 13.341 69.521 11.193 4.127-.352 7.188-3.983 6.835-8.11-.352-4.128-3.99-7.195-8.11-6.835-19.336 2.028-46.262-1.704-61.613-9.702-11.775-5.805-25.587-6.416-37.893-1.676-12.264 4.724-22.059 14.4-26.874 26.547-8.315 20.98-12.372 45.781-12.826 61.392l-4.459-.034-17.5-37.136c-2.796-5.934-4.274-12.539-4.274-19.099 0-22.286 14.023-42.52 34.896-50.351 6.957-2.611 11.428-9.391 11.124-16.879-.367-8.214 3.672-17.978 12.152-26.258 2.949-2.908 2.983-7.657.075-10.606-2.909-2.95-7.655-2.984-10.606-.076-10.887 10.733-16.642 23.144-16.642 35.892 0 .566.011 1.124.033 1.664.041 1.013-.511 1.884-1.406 2.22-26.692 10.014-44.627 35.893-44.627 64.396 0 8.756 1.973 17.571 5.706 25.492l15.272 32.409c-14.755 4.684-25.478 18.507-25.478 34.79 0 26.188 21.309 47.493 47.5 47.493h7.617c3.393 8.245 9.417 18.545 16.415 27.661h-84.182c-9.019-.13-18.617 8.472-17.404 19.326l9.36 89.1c-18.055 11.717-30.381 30.294-34.1 51.682l-6.35 36.493c-.71 4.081 2.022 7.964 6.104 8.675.435.076.867.112 1.294.112 3.578 0 6.746-2.57 7.38-6.216l6.35-36.494c2.539-14.601 10.066-27.562 21.142-36.933l6.72 63.971c.937 8.933 8.419 15.67 17.404 15.67h335.51c8.984 0 16.467-6.737 17.404-15.67l6.729-64.053c11.06 9.369 18.576 22.32 21.113 36.905l6.37 36.604c.634 3.646 3.802 6.215 7.38 6.215.427 0 .859-.037 1.295-.112 4.08-.71 6.813-4.594 6.102-8.675zm-76.148-271.755c0 17.917-14.579 32.493-32.5 32.493h-2.732c3.614-14.914 4.366-31.639 4.509-53.915l9.23-.072c11.852.004 21.493 9.645 21.493 21.494zm-283.5 32.493c-17.921 0-32.5-14.576-32.5-32.493 0-11.849 9.64-21.49 21.492-21.494l9.23.072c.143 22.276.895 39.001 4.509 53.915zm81.036 38.481c7.449-9.471 12.579-15.222 20.974-15.222 4.654 0 7.004 1.583 10.256 3.775 2.399 1.671 7.591 5.001 13.999 5.198 6.077-.214 10.177-2.978 13.47-5.198 3.252-2.192 5.602-3.775 10.256-3.775 8.395 0 13.524 5.75 20.974 15.222 1.085 1.379 2.192 2.786 3.339 4.181h-96.606c1.146-1.395 2.253-2.802 3.338-4.181z"/><path d="m294.001 206.465v14.997c0 4.142 3.357 7.5 7.5 7.5s7.5-3.358 7.5-7.5v-14.997c0-4.142-3.357-7.5-7.5-7.5s-7.5 3.358-7.5 7.5z"/><path d="m203.001 206.465v14.997c0 4.142 3.357 7.5 7.5 7.5s7.5-3.358 7.5-7.5v-14.997c0-4.142-3.357-7.5-7.5-7.5s-7.5 3.358-7.5 7.5z"/><path d="m239.102 257.141c5.447 2.774 11.423 4.162 17.398 4.162s11.951-1.388 17.398-4.162c3.69-1.88 5.159-6.396 3.278-10.087-1.879-3.691-6.395-5.157-10.087-3.279-6.631 3.378-14.549 3.378-21.18 0-3.69-1.879-8.207-.412-10.087 3.279-1.879 3.69-.41 8.206 3.28 10.087z"/><path d="m256.001 448.154c-4.426 0-8.763-.736-12.891-2.187-3.912-1.373-8.189.681-9.563 4.588-1.374 3.908.681 8.189 4.588 9.563 5.73 2.014 11.741 3.036 17.865 3.036 29.696 0 53.855-24.156 53.855-53.847s-24.159-53.847-53.855-53.847-53.855 24.156-53.855 53.847c0 8.367 1.869 16.388 5.555 23.84 1.836 3.712 6.332 5.235 10.048 3.397 3.713-1.836 5.233-6.335 3.397-10.048-2.654-5.366-4-11.15-4-17.19 0-21.42 17.431-38.847 38.855-38.847s38.855 17.427 38.855 38.847-17.43 38.848-38.854 38.848z"/><path d="m330.001 181.455c0-4.142-3.357-7.5-7.5-7.5h-42c-4.143 0-7.5 3.358-7.5 7.5s3.357 7.5 7.5 7.5h42c4.142 0 7.5-3.358 7.5-7.5z"/><path d="m238.001 181.455c0-4.142-3.357-7.5-7.5-7.5h-42c-4.143 0-7.5 3.358-7.5 7.5s3.357 7.5 7.5 7.5h42c4.142 0 7.5-3.358 7.5-7.5z"/></g></g></svg>